# xmcd
#
# Track frame offsets:
# 150
# 9380
# 23090
# 32256
# 41739
# 51768
# 62391
# 74207
# 83049
# 94963
# 104321
# 114300
# 124135
# 134703
# 146870
# 157178
# 170691
# 181619
# 192408
# 201824
# 213241
# 222517
#
# Disc length: 3100 seconds
#
#
# Revision: 0
# Processed by: cddbd v1.5.2PL0 Copyright (c) Steve Scherf et al.
# Submitted via: FreeRIP 2.96 
#
DISCID=450c1a16
DTITLE=webb pierce - holiday for love
DYEAR=2009
DGENRE=Country
TTITLE0=cause I love you
TTITLE1=little rosa
TTITLE2=hold everything
TTITLE3=any old time
TTITLE4=we will find a way
TTITLE5=teenage boogie
TTITLE6=Im really glad you hurt me
TTITLE7=Im tired
TTITLE8=Its my way
TTITLE9=honky tonk song
TTITLE10=someday
TTITLE11=bye bye love
TTITLE12=missing you
TTITLE13=oh so many years
TTITLE14=holiday for love
TTITLE15=dont do it darling
TTITLE16=one week later
TTITLE17=crying over you
TTITLE18=you will come back
TTITLE19=falling back to you
TTITLE20=tupelo county jail
TTITLE21=Im letting you go
EXTD=
EXTT0=
EXTT1=
EXTT2=
EXTT3=
EXTT4=
EXTT5=
EXTT6=
EXTT7=
EXTT8=
EXTT9=
EXTT10=
EXTT11=
EXTT12=
EXTT13=
EXTT14=
EXTT15=
EXTT16=
EXTT17=
EXTT18=
EXTT19=
EXTT20=
EXTT21=
PLAYORDER=
